<svg width="22" height="22" viewBox="0 0 22 22" fill="none" xmlns="http://www.w3.org/2000/svg">
<path opacity="1" d="M11.2599 21.1537C16.9188 21.1537 21.5897 16.4828 21.5897 10.8339C21.5897 5.18495 16.9088 0.514093 11.2499 0.514093C5.60096 0.514093 0.940079 5.18495 0.940079 10.8339C0.940079 16.4828 5.61094 21.1537 11.2599 21.1537ZM16.6194 10.8239C16.6194 11.1233 16.5096 11.3529 16.2701 11.5824L12.747 15.0457C12.5673 15.2153 12.3677 15.3051 12.1082 15.3051C11.6192 15.3051 11.2699 14.9359 11.2699 14.4368C11.2699 14.1873 11.3697 13.9578 11.5393 13.7981L12.7969 12.6004L13.9546 11.6723L11.8288 11.7721H6.78863C6.24969 11.7721 5.87043 11.3728 5.87043 10.8339C5.87043 10.285 6.25967 9.88575 6.78863 9.88575H11.8288L13.9546 9.98556L12.7869 9.05737L11.5393 7.85972C11.3796 7.70003 11.2699 7.47048 11.2699 7.22097C11.2699 6.72194 11.6192 6.36265 12.1082 6.36265C12.3677 6.36265 12.5673 6.43251 12.747 6.61216L16.2701 10.0854C16.5196 10.3149 16.6194 10.5445 16.6194 10.8239Z" fill="#E8EDF9"/>
</svg>
