<svg width="17" height="14" viewBox="0 0 17 14" fill="none" xmlns="http://www.w3.org/2000/svg">
<path d="M5.06152 12.5605C6.25781 12.5605 7.08496 12.9912 7.4541 13.2441C7.58398 13.3125 7.92578 13.5244 8.01465 13.5449V2.18359C7.50195 1.29492 6.10059 0.597656 4.67188 0.597656C2.77832 0.597656 1.2334 1.66406 0.830078 2.4707V12.7998C0.836914 13.4082 1.17871 13.6543 1.60254 13.6543C1.91699 13.6543 2.11523 13.5449 2.32715 13.3809C2.76465 13.0254 3.76953 12.5605 5.06152 12.5605ZM11.9385 12.5605C13.2305 12.5605 14.2285 13.0254 14.666 13.3809C14.8779 13.5449 15.0762 13.6543 15.3838 13.6543C15.8076 13.6543 16.1631 13.4082 16.1631 12.7998V2.4707C15.7598 1.66406 14.2148 0.597656 12.3281 0.597656C10.8994 0.597656 9.49121 1.29492 8.98535 2.18359V13.5586C9.06738 13.5381 9.40918 13.3193 9.5459 13.2441C9.91504 12.9912 10.7422 12.5605 11.9385 12.5605Z" fill="#E8EDF9"/>
</svg>
