<svg width="15" height="15" viewBox="0 0 15 15" fill="none" xmlns="http://www.w3.org/2000/svg">
<path d="M7.49316 14.1465C11.3691 14.1465 14.5684 10.9473 14.5684 7.07129C14.5684 3.20215 11.3623 0.00292969 7.48633 0.00292969C3.61719 0.00292969 0.424805 3.20215 0.424805 7.07129C0.424805 10.9473 3.62402 14.1465 7.49316 14.1465ZM4.3418 7.39258C4.3418 5.7041 5.69531 4.35742 7.24023 4.30273C7.30176 4.30273 7.37012 4.30957 7.41797 4.30957L7.00781 3.88574C6.93945 3.79688 6.87793 3.68066 6.87793 3.53711C6.87793 3.27734 7.07617 3.05176 7.37695 3.05176C7.52051 3.05176 7.65039 3.12012 7.74609 3.21582L9.06543 4.5625C9.25 4.75391 9.26367 5.0957 9.06543 5.28711L7.73242 6.62012C7.65039 6.70898 7.51367 6.77051 7.38379 6.77051C7.09668 6.77051 6.87793 6.57227 6.87793 6.27832C6.87793 6.14844 6.92578 6.03223 7.00098 5.95703L7.56152 5.38965C7.49316 5.38965 7.4043 5.38965 7.3291 5.38965C6.2627 5.42383 5.42188 6.31934 5.42188 7.41309C5.42188 8.56152 6.33789 9.49121 7.49316 9.49121C8.63477 9.49121 9.55762 8.56836 9.55762 7.41309C9.55762 7.11914 9.79688 6.87988 10.1045 6.87988C10.3916 6.87988 10.6377 7.11914 10.6377 7.41309C10.6377 9.15625 9.23633 10.5713 7.49316 10.5713C5.75 10.5713 4.3418 9.15625 4.3418 7.39258Z" fill="#E8EDF9"/>
</svg>
