<svg width="15" height="16" viewBox="0 0 15 16" fill="none" xmlns="http://www.w3.org/2000/svg">
<path d="M7.49316 15.1328C11.3691 15.1328 14.5684 11.9336 14.5684 8.06445C14.5684 4.19531 11.3623 0.996094 7.48633 0.996094C3.61719 0.996094 0.424805 4.19531 0.424805 8.06445C0.424805 11.9336 3.62402 15.1328 7.49316 15.1328ZM3.82227 8.05762C3.82227 7.86621 3.89062 7.70898 4.06152 7.55176L6.47461 5.17285C6.59766 5.0498 6.73438 5.00195 6.90527 5.00195C7.24707 5.00195 7.48633 5.24805 7.48633 5.58984C7.48633 5.76074 7.41113 5.91797 7.30176 6.02734L6.44727 6.84766L5.64746 7.4834L7.10352 7.41504H10.5557C10.918 7.41504 11.1777 7.68848 11.1777 8.06445C11.1777 8.43359 10.918 8.70703 10.5557 8.70703H7.10352L5.64746 8.63867L6.44043 9.27441L7.30176 10.0947C7.41797 10.2041 7.48633 10.3613 7.48633 10.5322C7.48633 10.874 7.24707 11.127 6.90527 11.127C6.73438 11.127 6.59766 11.0654 6.47461 10.9492L4.06152 8.57715C3.89746 8.41992 3.82227 8.2627 3.82227 8.05762Z" fill="#E8EDF9"/>
</svg>
