<svg width="21" height="22" viewBox="0 0 21 22" fill="none" xmlns="http://www.w3.org/2000/svg">
<path d="M10.38 21.1537C16.0389 21.1537 20.7098 16.4828 20.7098 10.8339C20.7098 5.18495 16.0289 0.514093 10.37 0.514093C4.72107 0.514093 0.0601959 5.18495 0.0601959 10.8339C0.0601959 16.4828 4.73105 21.1537 10.38 21.1537ZM5.02049 10.8239C5.02049 10.5445 5.12029 10.3149 5.3698 10.0854L8.89291 6.61216C9.07256 6.43251 9.27217 6.36265 9.52168 6.36265C10.0207 6.36265 10.37 6.72194 10.37 7.22097C10.37 7.47048 10.2602 7.70003 10.1005 7.85972L8.85299 9.05737L7.68527 9.98556L9.81111 9.88575H14.8512C15.3802 9.88575 15.7595 10.285 15.7595 10.8339C15.7595 11.3728 15.3802 11.7721 14.8512 11.7721H9.81111L7.68527 11.6723L8.84301 12.6004L10.1005 13.7981C10.2702 13.9578 10.37 14.1873 10.37 14.4368C10.37 14.9359 10.0207 15.3051 9.52168 15.3051C9.27217 15.3051 9.07256 15.2153 8.89291 15.0457L5.3698 11.5824C5.13027 11.3529 5.02049 11.1233 5.02049 10.8239Z" fill="#E8EDF9"/>
</svg>
