<svg width="15" height="16" viewBox="0 0 15 16" fill="none" xmlns="http://www.w3.org/2000/svg">
<path d="M7.49316 15.1328C11.3691 15.1328 14.5684 11.9336 14.5684 8.06445C14.5684 4.19531 11.3623 0.996094 7.48633 0.996094C3.61719 0.996094 0.424805 4.19531 0.424805 8.06445C0.424805 11.9336 3.62402 15.1328 7.49316 15.1328ZM10.002 11.3662C9.80371 11.5645 9.46875 11.5645 9.27051 11.3662L7.55469 9.60254C7.45898 9.5 7.4043 9.37012 7.4043 9.24707C7.4043 8.9668 7.60254 8.76855 7.88281 8.76855C8.01953 8.76855 8.14258 8.80957 8.23145 8.91211L8.94238 9.64355L9.16113 9.88281L9.14746 9.53418V5.10449C9.14746 4.83105 9.35254 4.61914 9.63965 4.61914C9.91309 4.61914 10.125 4.82422 10.125 5.10449V9.52734L10.1182 9.87598L10.3369 9.64355L11.0479 8.91211C11.1367 8.81641 11.2598 8.76855 11.3896 8.76855C11.6768 8.76855 11.875 8.9668 11.875 9.24707C11.875 9.37012 11.8066 9.50684 11.7178 9.60254L10.002 11.3662ZM4.98438 4.77637C5.18945 4.56445 5.50391 4.57812 5.70215 4.77637L7.4248 6.54004C7.51367 6.62891 7.5752 6.76562 7.5752 6.89551C7.5752 7.17578 7.37012 7.37402 7.09668 7.37402C6.9668 7.37402 6.84375 7.32617 6.74805 7.2373L6.03711 6.49219L5.81836 6.25293L5.83203 6.6084V11.0381C5.83203 11.3047 5.62695 11.5166 5.33984 11.5166C5.06641 11.5166 4.85449 11.3047 4.85449 11.0381V6.6084L4.86133 6.25293L4.64941 6.49219L3.93164 7.22363C3.84277 7.31934 3.71973 7.37402 3.58984 7.37402C3.30957 7.37402 3.10449 7.16895 3.10449 6.89551C3.10449 6.77246 3.17285 6.64258 3.25488 6.54004L4.98438 4.77637Z" fill="#E8EDF9"/>
</svg>
