<svg width="18" height="16" viewBox="0 0 18 16" fill="none" xmlns="http://www.w3.org/2000/svg">
<path d="M4.05078 12.3779H8.34375V8.57715L8.3916 7.59961L7.99512 8.07812L7.04492 9.09668C6.93555 9.21973 6.76465 9.28809 6.60059 9.28809C6.2793 9.28809 6.01953 9.04883 6.01953 8.7207C6.01953 8.5498 6.08789 8.41992 6.2041 8.30371L8.50098 6.08887C8.67188 5.9248 8.82227 5.87012 9 5.87012C9.1709 5.87012 9.32812 5.9248 9.49219 6.08887L11.7891 8.30371C11.9121 8.41992 11.9736 8.5498 11.9736 8.7207C11.9736 9.04883 11.7139 9.28809 11.3857 9.28809C11.2285 9.28809 11.0645 9.21973 10.9482 9.09668L9.99805 8.07812L9.60156 7.59961L9.65625 8.57715V12.3779H14.3389C16.3623 12.3779 17.7363 11.1338 17.7363 9.4248C17.7363 8.00977 16.9092 6.76562 15.5488 6.21191C15.5557 3.12207 13.3271 0.893555 10.4629 0.893555C8.64453 0.893555 7.27734 1.83008 6.42285 3.06738C4.78906 2.66406 2.86133 3.90137 2.79297 5.8291C1.22754 6.10254 0.263672 7.4834 0.263672 9.10352C0.263672 10.915 1.77441 12.3779 4.05078 12.3779ZM9 15.8984C9.34863 15.8984 9.63574 15.6045 9.63574 15.2695V12.0908C9.62207 12.4121 9.34863 12.6992 9 12.6992C8.64453 12.6992 8.37109 12.4121 8.35742 12.0908V15.2695C8.35742 15.6045 8.64453 15.8984 9 15.8984Z" fill="#E8EDF9"/>
</svg>
