<svg width="15" height="16" viewBox="0 0 15 16" fill="none" xmlns="http://www.w3.org/2000/svg">
<path d="M7.49316 15.1328C11.3691 15.1328 14.5684 11.9336 14.5684 8.06445C14.5684 4.19531 11.3623 0.996094 7.48633 0.996094C3.61719 0.996094 0.424805 4.19531 0.424805 8.06445C0.424805 11.9336 3.62402 15.1328 7.49316 15.1328ZM11.1641 8.05762C11.1641 8.2627 11.0889 8.41992 10.9248 8.57715L8.51172 10.9492C8.38867 11.0654 8.25195 11.127 8.07422 11.127C7.73926 11.127 7.5 10.874 7.5 10.5322C7.5 10.3613 7.56836 10.2041 7.68457 10.0947L8.5459 9.27441L9.33887 8.63867L7.88281 8.70703H4.43066C4.06152 8.70703 3.80176 8.43359 3.80176 8.06445C3.80176 7.68848 4.06836 7.41504 4.43066 7.41504H7.88281L9.33887 7.4834L8.53906 6.84766L7.68457 6.02734C7.5752 5.91797 7.5 5.76074 7.5 5.58984C7.5 5.24805 7.73926 5.00195 8.07422 5.00195C8.25195 5.00195 8.38867 5.0498 8.51172 5.17285L10.9248 7.55176C11.0957 7.70898 11.1641 7.86621 11.1641 8.05762Z" fill="#E8EDF9"/>
</svg>
